<mxfile host="app.diagrams.net" modified="2023-04-08T05:40:47.930Z" agent="Mozilla/5.0 (Windows NT 10.0; Win64; x64) AppleWebKit/537.36 (KHTML, like Gecko) Chrome/111.0.0.0 Safari/537.36" etag="mp1Y-cdMkuPRJZrAa9E_" version="21.1.2" type="device">
  <diagram id="3H68zrdPr-kibcdnCHRe" name="Page-1">
    <mxGraphModel dx="1240" dy="458" grid="1" gridSize="10" guides="1" tooltips="1" connect="1" arrows="1" fold="1" page="0" pageScale="1" pageWidth="827" pageHeight="1169" math="0" shadow="0">
      <root>
        <mxCell id="WIyWlLk6GJQsqaUBKTNV-0" />
        <mxCell id="WIyWlLk6GJQsqaUBKTNV-1" parent="WIyWlLk6GJQsqaUBKTNV-0" />
        <mxCell id="8im1w3hWn27PwlHEw-EE-0" value="" style="rounded=1;whiteSpace=wrap;html=1;" parent="WIyWlLk6GJQsqaUBKTNV-1" vertex="1">
          <mxGeometry x="220" y="540" width="140" height="90" as="geometry" />
        </mxCell>
        <mxCell id="8im1w3hWn27PwlHEw-EE-1" value="" style="rounded=1;whiteSpace=wrap;html=1;" parent="WIyWlLk6GJQsqaUBKTNV-1" vertex="1">
          <mxGeometry x="230" y="730" width="140" height="90" as="geometry" />
        </mxCell>
        <mxCell id="8im1w3hWn27PwlHEw-EE-2" value="" style="rounded=1;whiteSpace=wrap;html=1;" parent="WIyWlLk6GJQsqaUBKTNV-1" vertex="1">
          <mxGeometry x="450" y="730" width="140" height="90" as="geometry" />
        </mxCell>
        <mxCell id="8im1w3hWn27PwlHEw-EE-3" value="" style="rounded=1;whiteSpace=wrap;html=1;" parent="WIyWlLk6GJQsqaUBKTNV-1" vertex="1">
          <mxGeometry x="670" y="730" width="140" height="90" as="geometry" />
        </mxCell>
        <mxCell id="8im1w3hWn27PwlHEw-EE-8" value="" style="shape=cylinder3;whiteSpace=wrap;html=1;boundedLbl=1;backgroundOutline=1;size=15;" parent="WIyWlLk6GJQsqaUBKTNV-1" vertex="1">
          <mxGeometry x="570" y="930" width="130" height="110" as="geometry" />
        </mxCell>
        <mxCell id="8im1w3hWn27PwlHEw-EE-9" value="" style="rounded=1;whiteSpace=wrap;html=1;" parent="WIyWlLk6GJQsqaUBKTNV-1" vertex="1">
          <mxGeometry x="395" y="570" width="250" height="80" as="geometry" />
        </mxCell>
        <mxCell id="8im1w3hWn27PwlHEw-EE-12" value="" style="endArrow=classic;startArrow=classic;html=1;rounded=0;entryX=0.429;entryY=1;entryDx=0;entryDy=0;entryPerimeter=0;exitX=-0.017;exitY=0.359;exitDx=0;exitDy=0;exitPerimeter=0;" parent="WIyWlLk6GJQsqaUBKTNV-1" source="8im1w3hWn27PwlHEw-EE-8" target="8im1w3hWn27PwlHEw-EE-2" edge="1">
          <mxGeometry width="50" height="50" relative="1" as="geometry">
            <mxPoint x="560" y="970" as="sourcePoint" />
            <mxPoint x="510" y="880" as="targetPoint" />
            <Array as="points">
              <mxPoint x="510" y="970" />
            </Array>
          </mxGeometry>
        </mxCell>
        <mxCell id="8im1w3hWn27PwlHEw-EE-13" value="" style="endArrow=classic;startArrow=classic;html=1;rounded=0;entryX=0.429;entryY=1;entryDx=0;entryDy=0;entryPerimeter=0;exitX=0.997;exitY=0.365;exitDx=0;exitDy=0;exitPerimeter=0;" parent="WIyWlLk6GJQsqaUBKTNV-1" source="8im1w3hWn27PwlHEw-EE-8" edge="1">
          <mxGeometry width="50" height="50" relative="1" as="geometry">
            <mxPoint x="827" y="969" as="sourcePoint" />
            <mxPoint x="769" y="820" as="targetPoint" />
            <Array as="points">
              <mxPoint x="769" y="970" />
              <mxPoint x="769" y="900" />
            </Array>
          </mxGeometry>
        </mxCell>
        <mxCell id="8im1w3hWn27PwlHEw-EE-14" value="" style="endArrow=classic;startArrow=classic;html=1;rounded=0;exitX=0.5;exitY=0;exitDx=0;exitDy=0;" parent="WIyWlLk6GJQsqaUBKTNV-1" source="8im1w3hWn27PwlHEw-EE-2" edge="1">
          <mxGeometry width="50" height="50" relative="1" as="geometry">
            <mxPoint x="525" y="655" as="sourcePoint" />
            <mxPoint x="520" y="650" as="targetPoint" />
          </mxGeometry>
        </mxCell>
        <mxCell id="8im1w3hWn27PwlHEw-EE-16" value="Client Request" style="text;html=1;strokeColor=none;fillColor=none;align=center;verticalAlign=middle;whiteSpace=wrap;rounded=0;" parent="WIyWlLk6GJQsqaUBKTNV-1" vertex="1">
          <mxGeometry x="250" y="580" width="60" height="30" as="geometry" />
        </mxCell>
        <mxCell id="8im1w3hWn27PwlHEw-EE-17" value="HTTP" style="text;html=1;strokeColor=none;fillColor=none;align=center;verticalAlign=middle;whiteSpace=wrap;rounded=0;" parent="WIyWlLk6GJQsqaUBKTNV-1" vertex="1">
          <mxGeometry x="290" y="660" width="60" height="30" as="geometry" />
        </mxCell>
        <mxCell id="8im1w3hWn27PwlHEw-EE-18" value="Controller" style="text;html=1;strokeColor=none;fillColor=none;align=center;verticalAlign=middle;whiteSpace=wrap;rounded=0;" parent="WIyWlLk6GJQsqaUBKTNV-1" vertex="1">
          <mxGeometry x="270" y="760" width="60" height="30" as="geometry" />
        </mxCell>
        <mxCell id="8im1w3hWn27PwlHEw-EE-19" value="Service&amp;nbsp;&lt;br&gt;or&lt;br&gt;Repository" style="text;html=1;strokeColor=none;fillColor=none;align=center;verticalAlign=middle;whiteSpace=wrap;rounded=0;" parent="WIyWlLk6GJQsqaUBKTNV-1" vertex="1">
          <mxGeometry x="480" y="760" width="60" height="30" as="geometry" />
        </mxCell>
        <mxCell id="8im1w3hWn27PwlHEw-EE-20" value="Model or Entity" style="text;html=1;strokeColor=none;fillColor=none;align=center;verticalAlign=middle;whiteSpace=wrap;rounded=0;" parent="WIyWlLk6GJQsqaUBKTNV-1" vertex="1">
          <mxGeometry x="720" y="760" width="60" height="30" as="geometry" />
        </mxCell>
        <mxCell id="8im1w3hWn27PwlHEw-EE-23" value="MySQL&lt;br&gt;Database&lt;br&gt;" style="text;html=1;strokeColor=none;fillColor=none;align=center;verticalAlign=middle;whiteSpace=wrap;rounded=0;" parent="WIyWlLk6GJQsqaUBKTNV-1" vertex="1">
          <mxGeometry x="610" y="980" width="60" height="30" as="geometry" />
        </mxCell>
        <mxCell id="8im1w3hWn27PwlHEw-EE-25" value="Dao or Repository Extending&lt;br&gt;&amp;nbsp;JpaRepository" style="text;html=1;strokeColor=none;fillColor=none;align=center;verticalAlign=middle;whiteSpace=wrap;rounded=0;" parent="WIyWlLk6GJQsqaUBKTNV-1" vertex="1">
          <mxGeometry x="460" y="600" width="120" height="30" as="geometry" />
        </mxCell>
        <mxCell id="8im1w3hWn27PwlHEw-EE-26" value="&#xa;&lt;em style=&quot;font-weight: bold; font-style: normal; color: rgb(95, 99, 104); font-family: arial, sans-serif; font-size: 14px; font-variant-ligatures: normal; font-variant-caps: normal; letter-spacing: normal; orphans: 2; text-align: left; text-indent: 0px; text-transform: none; widows: 2; word-spacing: 0px; -webkit-text-stroke-width: 0px; background-color: rgb(255, 255, 255); text-decoration-thickness: initial; text-decoration-style: initial; text-decoration-color: initial;&quot;&gt;Controllers&lt;/em&gt;&lt;span style=&quot;color: rgb(77, 81, 86); font-family: arial, sans-serif; font-size: 14px; font-style: normal; font-variant-ligatures: normal; font-variant-caps: normal; font-weight: 400; letter-spacing: normal; orphans: 2; text-align: left; text-indent: 0px; text-transform: none; widows: 2; word-spacing: 0px; -webkit-text-stroke-width: 0px; background-color: rgb(255, 255, 255); text-decoration-thickness: initial; text-decoration-style: initial; text-decoration-color: initial; float: none; display: inline !important;&quot;&gt;&lt;span&gt;&amp;nbsp;&lt;/span&gt;interpret user input and transform it into&lt;span&gt;&amp;nbsp;&lt;/span&gt;&lt;/span&gt;&lt;em style=&quot;font-weight: bold; font-style: normal; color: rgb(95, 99, 104); font-family: arial, sans-serif; font-size: 14px; font-variant-ligatures: normal; font-variant-caps: normal; letter-spacing: normal; orphans: 2; text-align: left; text-indent: 0px; text-transform: none; widows: 2; word-spacing: 0px; -webkit-text-stroke-width: 0px; background-color: rgb(255, 255, 255); text-decoration-thickness: initial; text-decoration-style: initial; text-decoration-color: initial;&quot;&gt;a&lt;/em&gt;&lt;span style=&quot;color: rgb(77, 81, 86); font-family: arial, sans-serif; font-size: 14px; font-style: normal; font-variant-ligatures: normal; font-variant-caps: normal; font-weight: 400; letter-spacing: normal; orphans: 2; text-align: left; text-indent: 0px; text-transform: none; widows: 2; word-spacing: 0px; -webkit-text-stroke-width: 0px; background-color: rgb(255, 255, 255); text-decoration-thickness: initial; text-decoration-style: initial; text-decoration-color: initial; float: none; display: inline !important;&quot;&gt;&lt;span&gt;&amp;nbsp;&lt;/span&gt;model&lt;/span&gt;&#xa;&#xa;" style="text;html=1;strokeColor=none;fillColor=none;align=center;verticalAlign=middle;whiteSpace=wrap;rounded=0;" parent="WIyWlLk6GJQsqaUBKTNV-1" vertex="1">
          <mxGeometry x="270" y="860" width="60" height="30" as="geometry" />
        </mxCell>
        <mxCell id="8im1w3hWn27PwlHEw-EE-28" value="&lt;br&gt;&lt;span style=&quot;color: rgb(32, 33, 36); font-family: arial, sans-serif; font-size: 16px; font-style: normal; font-variant-ligatures: normal; font-variant-caps: normal; letter-spacing: normal; orphans: 2; text-align: start; text-indent: 0px; text-transform: none; widows: 2; word-spacing: 0px; -webkit-text-stroke-width: 0px; background-color: rgb(255, 255, 255); text-decoration-thickness: initial; text-decoration-style: initial; text-decoration-color: initial;&quot;&gt;provide some business functionalities&lt;/span&gt;&lt;br&gt;" style="text;html=1;strokeColor=none;fillColor=none;align=center;verticalAlign=middle;whiteSpace=wrap;rounded=0;" parent="WIyWlLk6GJQsqaUBKTNV-1" vertex="1">
          <mxGeometry x="440" y="830" width="60" height="30" as="geometry" />
        </mxCell>
        <mxCell id="8im1w3hWn27PwlHEw-EE-29" value="&lt;br&gt;&lt;span style=&quot;color: rgb(32, 33, 36); font-family: arial, sans-serif; font-size: 16px; font-style: normal; font-variant-ligatures: normal; font-variant-caps: normal; letter-spacing: normal; orphans: 2; text-align: start; text-indent: 0px; text-transform: none; widows: 2; word-spacing: 0px; -webkit-text-stroke-width: 0px; background-color: rgb(255, 255, 255); text-decoration-thickness: initial; text-decoration-style: initial; text-decoration-color: initial;&quot;&gt;defines that a class can be mapped to a table&lt;/span&gt;&lt;br&gt;" style="text;html=1;strokeColor=none;fillColor=none;align=center;verticalAlign=middle;whiteSpace=wrap;rounded=0;" parent="WIyWlLk6GJQsqaUBKTNV-1" vertex="1">
          <mxGeometry x="660" y="840" width="120" height="30" as="geometry" />
        </mxCell>
        <mxCell id="8im1w3hWn27PwlHEw-EE-30" value="" style="endArrow=classic;startArrow=classic;html=1;rounded=0;exitX=0.563;exitY=1.002;exitDx=0;exitDy=0;exitPerimeter=0;" parent="WIyWlLk6GJQsqaUBKTNV-1" source="8im1w3hWn27PwlHEw-EE-0" edge="1">
          <mxGeometry width="50" height="50" relative="1" as="geometry">
            <mxPoint x="260" y="690" as="sourcePoint" />
            <mxPoint x="299" y="730" as="targetPoint" />
            <Array as="points" />
          </mxGeometry>
        </mxCell>
        <mxCell id="8im1w3hWn27PwlHEw-EE-32" value="" style="endArrow=classic;startArrow=classic;html=1;rounded=0;entryX=-0.014;entryY=0.557;entryDx=0;entryDy=0;entryPerimeter=0;" parent="WIyWlLk6GJQsqaUBKTNV-1" edge="1">
          <mxGeometry width="50" height="50" relative="1" as="geometry">
            <mxPoint x="370" y="780" as="sourcePoint" />
            <mxPoint x="448" y="780" as="targetPoint" />
          </mxGeometry>
        </mxCell>
        <mxCell id="8im1w3hWn27PwlHEw-EE-33" value="" style="endArrow=classic;startArrow=classic;html=1;rounded=0;entryX=-0.014;entryY=0.557;entryDx=0;entryDy=0;entryPerimeter=0;" parent="WIyWlLk6GJQsqaUBKTNV-1" edge="1">
          <mxGeometry width="50" height="50" relative="1" as="geometry">
            <mxPoint x="590" y="780" as="sourcePoint" />
            <mxPoint x="668" y="780" as="targetPoint" />
          </mxGeometry>
        </mxCell>
        <mxCell id="8im1w3hWn27PwlHEw-EE-34" value="&lt;h1&gt;BACKEND&amp;nbsp; SPRINGBOOT&amp;nbsp;&amp;nbsp;&lt;/h1&gt;" style="text;html=1;strokeColor=none;fillColor=none;align=center;verticalAlign=middle;whiteSpace=wrap;rounded=0;" parent="WIyWlLk6GJQsqaUBKTNV-1" vertex="1">
          <mxGeometry x="245" y="950" width="210" height="30" as="geometry" />
        </mxCell>
        <mxCell id="8im1w3hWn27PwlHEw-EE-35" value="" style="rounded=1;whiteSpace=wrap;html=1;" parent="WIyWlLk6GJQsqaUBKTNV-1" vertex="1">
          <mxGeometry x="140" y="130" width="600" height="310" as="geometry" />
        </mxCell>
        <mxCell id="8im1w3hWn27PwlHEw-EE-36" value="&lt;br&gt;API" style="rounded=1;whiteSpace=wrap;html=1;" parent="WIyWlLk6GJQsqaUBKTNV-1" vertex="1">
          <mxGeometry x="150" y="160" width="160" height="110" as="geometry" />
        </mxCell>
        <mxCell id="8im1w3hWn27PwlHEw-EE-37" value="" style="rounded=1;whiteSpace=wrap;html=1;" parent="WIyWlLk6GJQsqaUBKTNV-1" vertex="1">
          <mxGeometry x="360" y="160" width="150" height="140" as="geometry" />
        </mxCell>
        <mxCell id="8im1w3hWn27PwlHEw-EE-38" value="" style="rounded=1;whiteSpace=wrap;html=1;" parent="WIyWlLk6GJQsqaUBKTNV-1" vertex="1">
          <mxGeometry x="560" y="160" width="150" height="110" as="geometry" />
        </mxCell>
        <mxCell id="8im1w3hWn27PwlHEw-EE-39" value="&lt;font style=&quot;font-size: 16px;&quot;&gt;Router&lt;/font&gt;" style="text;html=1;strokeColor=none;fillColor=none;align=center;verticalAlign=middle;whiteSpace=wrap;rounded=0;" parent="WIyWlLk6GJQsqaUBKTNV-1" vertex="1">
          <mxGeometry x="210" y="175" width="60" height="30" as="geometry" />
        </mxCell>
        <mxCell id="8im1w3hWn27PwlHEw-EE-40" value="Components" style="text;html=1;strokeColor=none;fillColor=none;align=center;verticalAlign=middle;whiteSpace=wrap;rounded=0;fontSize=16;" parent="WIyWlLk6GJQsqaUBKTNV-1" vertex="1">
          <mxGeometry x="395" y="180" width="60" height="30" as="geometry" />
        </mxCell>
        <mxCell id="8im1w3hWn27PwlHEw-EE-41" value="Services&amp;nbsp;" style="text;html=1;strokeColor=none;fillColor=none;align=center;verticalAlign=middle;whiteSpace=wrap;rounded=0;fontSize=16;" parent="WIyWlLk6GJQsqaUBKTNV-1" vertex="1">
          <mxGeometry x="605" y="190" width="60" height="30" as="geometry" />
        </mxCell>
        <mxCell id="8im1w3hWn27PwlHEw-EE-42" value="" style="rounded=1;whiteSpace=wrap;html=1;fontSize=16;" parent="WIyWlLk6GJQsqaUBKTNV-1" vertex="1">
          <mxGeometry x="165" y="360" width="210" height="60" as="geometry" />
        </mxCell>
        <mxCell id="8im1w3hWn27PwlHEw-EE-43" value="Axios HTTP Library" style="text;html=1;strokeColor=none;fillColor=none;align=center;verticalAlign=middle;whiteSpace=wrap;rounded=0;fontSize=16;" parent="WIyWlLk6GJQsqaUBKTNV-1" vertex="1">
          <mxGeometry x="200" y="375" width="110" height="30" as="geometry" />
        </mxCell>
        <mxCell id="8im1w3hWn27PwlHEw-EE-45" value="Pages -&lt;br&gt;Agent Admin&lt;br&gt;Customer" style="text;html=1;strokeColor=none;fillColor=none;align=center;verticalAlign=middle;whiteSpace=wrap;rounded=0;fontSize=16;" parent="WIyWlLk6GJQsqaUBKTNV-1" vertex="1">
          <mxGeometry x="370" y="240" width="120" height="30" as="geometry" />
        </mxCell>
        <mxCell id="8im1w3hWn27PwlHEw-EE-54" value="" style="endArrow=classic;html=1;rounded=0;fontSize=16;entryX=0.431;entryY=-0.014;entryDx=0;entryDy=0;entryPerimeter=0;exitX=0.234;exitY=1.002;exitDx=0;exitDy=0;exitPerimeter=0;" parent="WIyWlLk6GJQsqaUBKTNV-1" source="8im1w3hWn27PwlHEw-EE-35" target="8im1w3hWn27PwlHEw-EE-0" edge="1">
          <mxGeometry width="50" height="50" relative="1" as="geometry">
            <mxPoint x="240" y="500" as="sourcePoint" />
            <mxPoint x="290" y="450" as="targetPoint" />
          </mxGeometry>
        </mxCell>
        <mxCell id="ryH7EqEbLxBdOgD47MMc-1" value="&lt;h1&gt;Front End React&amp;nbsp;&lt;/h1&gt;" style="text;html=1;strokeColor=none;fillColor=none;align=center;verticalAlign=middle;whiteSpace=wrap;rounded=0;" parent="WIyWlLk6GJQsqaUBKTNV-1" vertex="1">
          <mxGeometry x="470" y="375" width="160" height="30" as="geometry" />
        </mxCell>
        <mxCell id="ryH7EqEbLxBdOgD47MMc-2" style="edgeStyle=orthogonalEdgeStyle;rounded=0;orthogonalLoop=1;jettySize=auto;html=1;exitX=0.5;exitY=1;exitDx=0;exitDy=0;" parent="WIyWlLk6GJQsqaUBKTNV-1" source="ryH7EqEbLxBdOgD47MMc-1" target="ryH7EqEbLxBdOgD47MMc-1" edge="1">
          <mxGeometry relative="1" as="geometry" />
        </mxCell>
        <mxCell id="ryH7EqEbLxBdOgD47MMc-4" value="" style="rounded=1;whiteSpace=wrap;html=1;" parent="WIyWlLk6GJQsqaUBKTNV-1" vertex="1">
          <mxGeometry x="330" y="50" width="230" height="60" as="geometry" />
        </mxCell>
        <mxCell id="ryH7EqEbLxBdOgD47MMc-5" value="&lt;h2&gt;User Interface View&lt;/h2&gt;" style="text;html=1;strokeColor=none;fillColor=none;align=center;verticalAlign=middle;whiteSpace=wrap;rounded=0;" parent="WIyWlLk6GJQsqaUBKTNV-1" vertex="1">
          <mxGeometry x="387.5" y="65" width="142.5" height="30" as="geometry" />
        </mxCell>
        <mxCell id="5lXjmam5JtfPLH3iEj9w-0" value="" style="rounded=1;whiteSpace=wrap;html=1;" parent="WIyWlLk6GJQsqaUBKTNV-1" vertex="1">
          <mxGeometry x="10" y="1370" width="330" height="150" as="geometry" />
        </mxCell>
        <mxCell id="5lXjmam5JtfPLH3iEj9w-1" value="&lt;h1&gt;&lt;font style=&quot;font-size: 20px;&quot;&gt;&lt;b&gt;Controller&lt;/b&gt;&lt;/font&gt;&lt;/h1&gt;" style="text;html=1;strokeColor=none;fillColor=none;align=center;verticalAlign=middle;whiteSpace=wrap;rounded=0;" parent="WIyWlLk6GJQsqaUBKTNV-1" vertex="1">
          <mxGeometry x="120" y="1330" width="60" height="30" as="geometry" />
        </mxCell>
        <mxCell id="5lXjmam5JtfPLH3iEj9w-2" value="&lt;h2&gt;&lt;font face=&quot;Times New Roman&quot;&gt;@RestController&lt;br&gt;@CrossOrigin()&lt;br&gt;@Autowired&lt;br&gt;&amp;nbsp;Repository Object&lt;/font&gt;&lt;/h2&gt;" style="text;html=1;strokeColor=none;fillColor=none;align=center;verticalAlign=middle;whiteSpace=wrap;rounded=0;" parent="WIyWlLk6GJQsqaUBKTNV-1" vertex="1">
          <mxGeometry x="-20" y="1410" width="230" height="50" as="geometry" />
        </mxCell>
        <mxCell id="5lXjmam5JtfPLH3iEj9w-3" value="&lt;h2&gt;&lt;font face=&quot;Times New Roman&quot;&gt;Mapping&lt;br&gt;@Pathvariable&lt;br&gt;GET,POST,&lt;br&gt;PUT,DELETE-&lt;br&gt;PUT,Post-@RequestBody&lt;/font&gt;&lt;/h2&gt;" style="text;html=1;strokeColor=none;fillColor=none;align=center;verticalAlign=middle;whiteSpace=wrap;rounded=0;" parent="WIyWlLk6GJQsqaUBKTNV-1" vertex="1">
          <mxGeometry x="225" y="1430" width="60" height="30" as="geometry" />
        </mxCell>
        <mxCell id="5lXjmam5JtfPLH3iEj9w-4" value="" style="rounded=1;whiteSpace=wrap;html=1;" parent="WIyWlLk6GJQsqaUBKTNV-1" vertex="1">
          <mxGeometry x="450" y="1370" width="250" height="150" as="geometry" />
        </mxCell>
        <mxCell id="5lXjmam5JtfPLH3iEj9w-5" value="&lt;h1&gt;Repository&lt;/h1&gt;" style="text;html=1;strokeColor=none;fillColor=none;align=center;verticalAlign=middle;whiteSpace=wrap;rounded=0;" parent="WIyWlLk6GJQsqaUBKTNV-1" vertex="1">
          <mxGeometry x="520" y="1330" width="60" height="30" as="geometry" />
        </mxCell>
        <mxCell id="5lXjmam5JtfPLH3iEj9w-7" value="&lt;h1&gt;C&lt;/h1&gt;" style="text;html=1;strokeColor=none;fillColor=none;align=center;verticalAlign=middle;whiteSpace=wrap;rounded=0;" parent="WIyWlLk6GJQsqaUBKTNV-1" vertex="1">
          <mxGeometry x="200" y="1330" width="60" height="30" as="geometry" />
        </mxCell>
        <mxCell id="5lXjmam5JtfPLH3iEj9w-8" value="&lt;h1&gt;I&lt;/h1&gt;" style="text;html=1;strokeColor=none;fillColor=none;align=center;verticalAlign=middle;whiteSpace=wrap;rounded=0;" parent="WIyWlLk6GJQsqaUBKTNV-1" vertex="1">
          <mxGeometry x="610" y="1330" width="60" height="30" as="geometry" />
        </mxCell>
        <mxCell id="5lXjmam5JtfPLH3iEj9w-9" value="&lt;h2&gt;repository Extends JpaRepository&lt;/h2&gt;" style="text;html=1;strokeColor=none;fillColor=none;align=center;verticalAlign=middle;whiteSpace=wrap;rounded=0;" parent="WIyWlLk6GJQsqaUBKTNV-1" vertex="1">
          <mxGeometry x="520" y="1420" width="110" height="30" as="geometry" />
        </mxCell>
        <mxCell id="5lXjmam5JtfPLH3iEj9w-10" value="&lt;h2&gt;PK from Entity&lt;/h2&gt;" style="text;html=1;strokeColor=none;fillColor=none;align=center;verticalAlign=middle;whiteSpace=wrap;rounded=0;" parent="WIyWlLk6GJQsqaUBKTNV-1" vertex="1">
          <mxGeometry x="510" y="1480" width="140" height="20" as="geometry" />
        </mxCell>
        <mxCell id="5lXjmam5JtfPLH3iEj9w-11" value="" style="rounded=1;whiteSpace=wrap;html=1;" parent="WIyWlLk6GJQsqaUBKTNV-1" vertex="1">
          <mxGeometry x="860" y="1370" width="330" height="140" as="geometry" />
        </mxCell>
        <mxCell id="5lXjmam5JtfPLH3iEj9w-12" value="&lt;h1&gt;Entity&lt;/h1&gt;" style="text;html=1;strokeColor=none;fillColor=none;align=center;verticalAlign=middle;whiteSpace=wrap;rounded=0;" parent="WIyWlLk6GJQsqaUBKTNV-1" vertex="1">
          <mxGeometry x="980" y="1330" width="60" height="30" as="geometry" />
        </mxCell>
        <mxCell id="5lXjmam5JtfPLH3iEj9w-16" value="&lt;h2&gt;@Id-Primary Key&lt;br&gt;&amp;nbsp;@GeneratedValue&lt;br&gt;&amp;nbsp;Auto Increament&lt;/h2&gt;" style="text;html=1;strokeColor=none;fillColor=none;align=center;verticalAlign=middle;whiteSpace=wrap;rounded=0;" parent="WIyWlLk6GJQsqaUBKTNV-1" vertex="1">
          <mxGeometry x="1070" y="1450" width="60" height="30" as="geometry" />
        </mxCell>
        <mxCell id="5lXjmam5JtfPLH3iEj9w-17" value="&lt;h2&gt;@Entity&lt;br&gt;&amp;nbsp;@Getter@Setter&lt;br&gt;&amp;nbsp;Constructo&lt;/h2&gt;" style="text;html=1;strokeColor=none;fillColor=none;align=center;verticalAlign=middle;whiteSpace=wrap;rounded=0;" parent="WIyWlLk6GJQsqaUBKTNV-1" vertex="1">
          <mxGeometry x="910" y="1400" width="60" height="30" as="geometry" />
        </mxCell>
        <mxCell id="5lXjmam5JtfPLH3iEj9w-19" value="&lt;h1&gt;C&lt;/h1&gt;" style="text;html=1;strokeColor=none;fillColor=none;align=center;verticalAlign=middle;whiteSpace=wrap;rounded=0;" parent="WIyWlLk6GJQsqaUBKTNV-1" vertex="1">
          <mxGeometry x="1040" y="1330" width="60" height="30" as="geometry" />
        </mxCell>
        <mxCell id="5lXjmam5JtfPLH3iEj9w-27" value="" style="endArrow=classic;startArrow=classic;html=1;rounded=0;entryX=0;entryY=0.5;entryDx=0;entryDy=0;" parent="WIyWlLk6GJQsqaUBKTNV-1" target="5lXjmam5JtfPLH3iEj9w-11" edge="1">
          <mxGeometry width="50" height="50" relative="1" as="geometry">
            <mxPoint x="700" y="1440" as="sourcePoint" />
            <mxPoint x="850" y="1440" as="targetPoint" />
          </mxGeometry>
        </mxCell>
        <mxCell id="5lXjmam5JtfPLH3iEj9w-28" value="" style="endArrow=classic;startArrow=classic;html=1;rounded=0;" parent="WIyWlLk6GJQsqaUBKTNV-1" edge="1">
          <mxGeometry width="50" height="50" relative="1" as="geometry">
            <mxPoint x="340" y="1444" as="sourcePoint" />
            <mxPoint x="450" y="1444" as="targetPoint" />
          </mxGeometry>
        </mxCell>
        <mxCell id="5lXjmam5JtfPLH3iEj9w-29" value="" style="shape=cylinder3;whiteSpace=wrap;html=1;boundedLbl=1;backgroundOutline=1;size=15;" parent="WIyWlLk6GJQsqaUBKTNV-1" vertex="1">
          <mxGeometry x="700" y="1640" width="190" height="130" as="geometry" />
        </mxCell>
        <mxCell id="5lXjmam5JtfPLH3iEj9w-30" value="&lt;h1&gt;MySQL DB&lt;/h1&gt;" style="text;html=1;strokeColor=none;fillColor=none;align=center;verticalAlign=middle;whiteSpace=wrap;rounded=0;" parent="WIyWlLk6GJQsqaUBKTNV-1" vertex="1">
          <mxGeometry x="720" y="1600" width="140" height="30" as="geometry" />
        </mxCell>
        <mxCell id="5lXjmam5JtfPLH3iEj9w-31" value="&lt;h2&gt;&lt;br&gt;&lt;/h2&gt;" style="text;html=1;strokeColor=none;fillColor=none;align=center;verticalAlign=middle;whiteSpace=wrap;rounded=0;" parent="WIyWlLk6GJQsqaUBKTNV-1" vertex="1">
          <mxGeometry x="765" y="1700" width="60" height="30" as="geometry" />
        </mxCell>
        <mxCell id="5lXjmam5JtfPLH3iEj9w-33" value="&lt;h2&gt;Url,Id&lt;br&gt;Username&lt;br&gt;Password&lt;/h2&gt;" style="text;html=1;strokeColor=none;fillColor=none;align=center;verticalAlign=middle;whiteSpace=wrap;rounded=0;" parent="WIyWlLk6GJQsqaUBKTNV-1" vertex="1">
          <mxGeometry x="760" y="1700" width="60" height="30" as="geometry" />
        </mxCell>
        <mxCell id="5lXjmam5JtfPLH3iEj9w-36" value="" style="endArrow=classic;startArrow=classic;html=1;rounded=0;entryX=0.421;entryY=1;entryDx=0;entryDy=0;entryPerimeter=0;" parent="WIyWlLk6GJQsqaUBKTNV-1" target="5lXjmam5JtfPLH3iEj9w-11" edge="1">
          <mxGeometry width="50" height="50" relative="1" as="geometry">
            <mxPoint x="892" y="1720" as="sourcePoint" />
            <mxPoint x="999" y="1560" as="targetPoint" />
            <Array as="points">
              <mxPoint x="950" y="1720" />
              <mxPoint x="999" y="1720" />
              <mxPoint x="999" y="1640" />
            </Array>
          </mxGeometry>
        </mxCell>
        <mxCell id="5lXjmam5JtfPLH3iEj9w-37" value="" style="endArrow=classic;startArrow=classic;html=1;rounded=0;entryX=0.421;entryY=1;entryDx=0;entryDy=0;entryPerimeter=0;exitX=0;exitY=0.615;exitDx=0;exitDy=0;exitPerimeter=0;" parent="WIyWlLk6GJQsqaUBKTNV-1" source="5lXjmam5JtfPLH3iEj9w-29" edge="1">
          <mxGeometry width="50" height="50" relative="1" as="geometry">
            <mxPoint x="690" y="1720" as="sourcePoint" />
            <mxPoint x="590" y="1520" as="targetPoint" />
            <Array as="points">
              <mxPoint x="590" y="1720" />
              <mxPoint x="590" y="1650" />
            </Array>
          </mxGeometry>
        </mxCell>
        <mxCell id="5lXjmam5JtfPLH3iEj9w-38" value="&lt;br&gt;&lt;span style=&quot;color: rgb(32, 33, 36); font-family: arial, sans-serif; font-size: 16px; font-style: normal; font-variant-ligatures: normal; font-variant-caps: normal; letter-spacing: normal; orphans: 2; text-align: start; text-indent: 0px; text-transform: none; widows: 2; word-spacing: 0px; -webkit-text-stroke-width: 0px; background-color: rgb(255, 255, 255); text-decoration-thickness: initial; text-decoration-style: initial; text-decoration-color: initial;&quot;&gt;defines that a class can be mapped to a table&lt;/span&gt;&lt;br&gt;" style="text;html=1;strokeColor=none;fillColor=none;align=center;verticalAlign=middle;whiteSpace=wrap;rounded=0;" parent="WIyWlLk6GJQsqaUBKTNV-1" vertex="1">
          <mxGeometry x="890" y="1540" width="120" height="30" as="geometry" />
        </mxCell>
        <mxCell id="5lXjmam5JtfPLH3iEj9w-39" value="&lt;br&gt;&lt;span style=&quot;color: rgb(32, 33, 36); font-family: arial, sans-serif; font-size: 16px; font-style: normal; font-variant-ligatures: normal; font-variant-caps: normal; letter-spacing: normal; orphans: 2; text-align: start; text-indent: 0px; text-transform: none; widows: 2; word-spacing: 0px; -webkit-text-stroke-width: 0px; background-color: rgb(255, 255, 255); text-decoration-thickness: initial; text-decoration-style: initial; text-decoration-color: initial;&quot;&gt;provide some business Logic and&amp;nbsp; functionalities&lt;/span&gt;" style="text;html=1;strokeColor=none;fillColor=none;align=center;verticalAlign=middle;whiteSpace=wrap;rounded=0;" parent="WIyWlLk6GJQsqaUBKTNV-1" vertex="1">
          <mxGeometry x="620" y="1550" width="80" height="30" as="geometry" />
        </mxCell>
        <mxCell id="LPCTpRbs1otO24Yz1zeN-1" value="" style="ellipse;shape=cloud;whiteSpace=wrap;html=1;" vertex="1" parent="WIyWlLk6GJQsqaUBKTNV-1">
          <mxGeometry x="-310" y="1365" width="230" height="155" as="geometry" />
        </mxCell>
        <mxCell id="LPCTpRbs1otO24Yz1zeN-2" value="&lt;h2&gt;PostMan&amp;nbsp;&lt;br&gt;Client Request&lt;/h2&gt;" style="text;html=1;strokeColor=none;fillColor=none;align=center;verticalAlign=middle;whiteSpace=wrap;rounded=0;" vertex="1" parent="WIyWlLk6GJQsqaUBKTNV-1">
          <mxGeometry x="-230" y="1425" width="60" height="30" as="geometry" />
        </mxCell>
        <mxCell id="LPCTpRbs1otO24Yz1zeN-4" value="" style="endArrow=classic;html=1;rounded=0;exitX=0.875;exitY=0.5;exitDx=0;exitDy=0;exitPerimeter=0;entryX=0.13;entryY=0.65;entryDx=0;entryDy=0;entryPerimeter=0;" edge="1" parent="WIyWlLk6GJQsqaUBKTNV-1" source="LPCTpRbs1otO24Yz1zeN-1" target="5lXjmam5JtfPLH3iEj9w-2">
          <mxGeometry width="50" height="50" relative="1" as="geometry">
            <mxPoint x="-90" y="1455" as="sourcePoint" />
            <mxPoint x="-40" y="1405" as="targetPoint" />
          </mxGeometry>
        </mxCell>
        <mxCell id="LPCTpRbs1otO24Yz1zeN-5" value="&lt;h1&gt;API Layer&lt;/h1&gt;" style="text;html=1;strokeColor=none;fillColor=none;align=center;verticalAlign=middle;whiteSpace=wrap;rounded=0;" vertex="1" parent="WIyWlLk6GJQsqaUBKTNV-1">
          <mxGeometry x="100" y="1530" width="160" height="30" as="geometry" />
        </mxCell>
        <mxCell id="LPCTpRbs1otO24Yz1zeN-7" value="JSON" style="text;html=1;strokeColor=none;fillColor=none;align=center;verticalAlign=middle;whiteSpace=wrap;rounded=0;" vertex="1" parent="WIyWlLk6GJQsqaUBKTNV-1">
          <mxGeometry x="-90" y="1450" width="60" height="30" as="geometry" />
        </mxCell>
        <mxCell id="LPCTpRbs1otO24Yz1zeN-8" value="DTOs" style="text;html=1;strokeColor=none;fillColor=none;align=center;verticalAlign=middle;whiteSpace=wrap;rounded=0;" vertex="1" parent="WIyWlLk6GJQsqaUBKTNV-1">
          <mxGeometry x="-90" y="1410" width="60" height="30" as="geometry" />
        </mxCell>
        <mxCell id="LPCTpRbs1otO24Yz1zeN-9" value="JSON" style="text;html=1;strokeColor=none;fillColor=none;align=center;verticalAlign=middle;whiteSpace=wrap;rounded=0;" vertex="1" parent="WIyWlLk6GJQsqaUBKTNV-1">
          <mxGeometry x="245" y="660" width="60" height="30" as="geometry" />
        </mxCell>
        <mxCell id="LPCTpRbs1otO24Yz1zeN-10" value="DTOs" style="text;html=1;strokeColor=none;fillColor=none;align=center;verticalAlign=middle;whiteSpace=wrap;rounded=0;" vertex="1" parent="WIyWlLk6GJQsqaUBKTNV-1">
          <mxGeometry x="245" y="680" width="60" height="30" as="geometry" />
        </mxCell>
      </root>
    </mxGraphModel>
  </diagram>
</mxfile>
